<svg xmlns="http://www.w3.org/2000/svg" viewBox="0 0 500 500"><g id="freepik--background-complete--inject-2"><path d="M444.71,349.14H264a5.87,5.87,0,0,1-5.86-5.86V80A5.87,5.87,0,0,1,264,74.15H444.71A5.87,5.87,0,0,1,450.57,80V343.28A5.87,5.87,0,0,1,444.71,349.14ZM264,74.4A5.61,5.61,0,0,0,258.35,80V343.28a5.61,5.61,0,0,0,5.61,5.61H444.71a5.61,5.61,0,0,0,5.61-5.61V80a5.61,5.61,0,0,0-5.61-5.61Z" style="fill:#f0f0f0"></path><path d="M236.28,349.14H55.53a5.87,5.87,0,0,1-5.86-5.86V80a5.87,5.87,0,0,1,5.86-5.86H236.28A5.87,5.87,0,0,1,242.14,80V343.28A5.87,5.87,0,0,1,236.28,349.14ZM55.53,74.4A5.61,5.61,0,0,0,49.92,80V343.28a5.61,5.61,0,0,0,5.61,5.61H236.28c3.1,0,5.61-2.51,6.34-6.16V79.45a7,7,0,0,0-6.34-5Z" style="fill:#f0f0f0"></path><rect y="410.21" width="500" height="0.25" style="fill:#f0f0f0"></rect><path d="M425.84,211.88c1.64,0,3.06.59,3.06,2.41,0,2.32-2.24,5.34-7.29,5.34-2.63,0-5.23-.8-5.23-2.39,0-1.27,1.61-2.43,3.26-3.18h-.09c-.91,0-2.6-.24-2.6-2,0-1.12.77-2.17,3.25-3.29a3.67,3.67,0,0,1-2.41-3.71c0-2.86,2.07-4.11,4.8-4.11a7.13,7.13,0,0,1,1.84.23,5.51,5.51,0,0,1,.92-2.31,2.24,2.24,0,0,1,1.78-.87,1.28,1.28,0,0,1,1.37,1.36,1.22,1.22,0,0,1-1.24,1.25c-.94,0-1.22-.62-1.39-1.64a3.22,3.22,0,0,0-.7,1.27,7.69,7.69,0,0,0-.27,1.08,3.68,3.68,0,0,1,2.51,3.74c0,2.86-2.09,4.12-4.82,4.12a6.76,6.76,0,0,1-1.92-.25c-1.17.63-2.18,1.26-2.18,2.06,0,.57.35.87,1.24.87Zm1.26,3.63c0-.95-.39-1.45-2-1.45h-4.84a3.09,3.09,0,0,0-1.77,2.63c0,1.77,2.06,2.5,3.8,2.5C424.5,219.19,427.1,218,427.1,215.51Zm-6.87-10.43c0,2.78.91,3.64,2.36,3.64s2.38-.86,2.38-3.64-.92-3.65-2.38-3.65S420.23,202.29,420.23,205.08Z" style="fill:#e6e6e6"></path><path d="M433,247.74c0,1.27.38,1.86,1.61,1.86v.45c-.44,0-.89-.06-1.31-.06a6.65,6.65,0,0,0-2.2.3v-2.51a3.66,3.66,0,0,1-3.47,2.55,2.92,2.92,0,0,1-2.21-.81,4,4,0,0,1-.7-2.77v-5.31c0-1.27-.37-1.87-1.6-1.87v-.45c.44,0,.89.06,1.31.06a7.3,7.3,0,0,0,2.2-.28v8.32c0,1.31.09,2.42,1.61,2.42s2.86-1.67,2.86-3.83v-4.37c0-1.27-.38-1.87-1.61-1.87v-.45c.44,0,.88.06,1.31.06a7.3,7.3,0,0,0,2.2-.28Z" style="fill:#e6e6e6"></path><path d="M408.54,244.36c0,7.06-4.27,11.73-11.73,11.73-1,0-3.15-.09-4.55-.09s-3.12,0-4,.09v-.65c2.2-.09,2.63-.42,2.63-2.78V236.57c0-2.36-.43-2.7-2.63-2.79v-.65c.74.05,2,.11,3.17.11l.79,0c1.49,0,3.66-.09,4.89-.09C404.82,233.13,408.54,237.12,408.54,244.36Zm-14.66-7.86v16.22c0,2.26.43,2.79,2.44,2.79,7.06,0,9-4,9-11,0-7.26-2.3-10.76-9-10.76C394.31,233.72,393.88,234.27,393.88,236.5Z" style="fill:#e6e6e6"></path><path d="M363.64,94.13c-1.75.08-2.09.34-2.09,2.21v12.77c0,1.87.34,2.14,2.09,2.14h1.88c3.22,0,3.86-1.23,4.22-4.81h.59c-.05.54-.07,1.28-.07,2.11,0,.64.05,2,.17,3.29-1.74-.08-4.17-.08-5.89-.08-1.54,0-4.94,0-7.46.08v-.52c1.74-.07,2.08-.34,2.08-2.21V96.34c0-1.87-.34-2.13-2.08-2.21v-.51c.71,0,2,.07,3.29.07s2.47,0,3.27-.07Z" style="fill:#e6e6e6"></path><path d="M336.88,110.3v.48c-.63.14-1.34.64-1.88,2.07l-5.59,14.43H329l-5.81-15c-.48-1.21-1.14-1.5-1.64-1.52v-.48c.64,0,1.64.07,2.55.07,1.23,0,2.38,0,3-.07v.48c-1.14,0-1.68.22-1.68.88a3.22,3.22,0,0,0,.28,1.12l4.31,11.44L334,114.16a5.62,5.62,0,0,0,.48-1.94c0-1-.72-1.4-2.08-1.44v-.48c.9,0,1.9.07,2.74.07A16.71,16.71,0,0,0,336.88,110.3Z" style="fill:#e6e6e6"></path><path d="M294.15,93.44c1.31,1.33,1.65,2.86,1.65,5.78v11.45c0,1.33.32,2,1.27,2a2.81,2.81,0,0,0,1.85-.86l.46.7a5.47,5.47,0,0,1-3.76,1.51c-2.88,0-3.54-1.73-3.54-3.66a7.19,7.19,0,0,1-6.34,3.66c-2.76,0-5.23-1.39-5.23-4.61s2.51-4.71,6.64-6.44c2.75-1.14,4.93-1.85,4.93-3.5V96.87c0-3.47-1.69-4.15-3.83-4.15-1.4,0-3.14.28-4.08,1.47a2.54,2.54,0,0,1,1.93,2.51,2.15,2.15,0,0,1-2.41,2.24,2.27,2.27,0,0,1-2.24-2.56,3.7,3.7,0,0,1,1.93-2.94,10.67,10.67,0,0,1,5.78-1.55A7.08,7.08,0,0,1,294.15,93.44Zm-2.07,7.67c-.44.67-1.35,1.09-3.95,2.36-1.81.86-4,2-4,5.23,0,2.47,1.41,3.62,3.3,3.62,1.65,0,3.26-.86,4.65-3.12Z" style="fill:#e6e6e6"></path><path d="M118.4,281.55c5,.66,6.43,3.12,6.43,5.68,0,3.58-2.85,6.11-7.57,6.11-.94,0-2.83-.1-5.42-.1-1.47,0-3,0-3.9.1v-.64c2.13-.09,2.55-.41,2.55-2.7V274.37c0-2.29-.42-2.62-2.55-2.71V271c.87.06,2.46.09,3.84.09,2,0,4-.06,4.76-.06,4.41,0,6.64,2.05,6.64,4.95,0,2.23-1.26,4.4-4.78,5.48Zm-5-7.18v7.12h2.13c3.7,0,4.63-2.4,4.63-5.14,0-3.09-1.27-4.69-4.42-4.69C113.83,271.66,113.41,272.2,113.41,274.37Zm8.26,12.72c0-3.2-1.61-5.06-5.61-5.06h-2.65v8c0,2.2.42,2.61,2.37,2.61C119.91,292.61,121.67,290.63,121.67,287.09Z" style="fill:#e6e6e6"></path><path d="M87.74,291.05a1.92,1.92,0,0,0,1,.43c.38,0,.54-.46.65-1.32h.69c-.09,1-.15,2.34-.15,6.1h-.68c-.22-2.84-1.59-5.75-4.9-5.75A3.42,3.42,0,0,0,80.72,294c0,2.71,2.33,3.79,5,5.47,3.11,1.94,5.38,3.51,5.38,6.72,0,3.8-2.87,5.68-6.35,5.68a6.94,6.94,0,0,1-4.08-1.11,2.07,2.07,0,0,0-1-.42c-.38,0-.54.45-.66,1.31h-.68c.08-1.22.11-2.95.11-7.16h.69c.25,3.62,1.62,6.78,5.44,6.78a3.69,3.69,0,0,0,3.88-4c0-2.42-1.88-3.79-4.65-5.46s-5.33-3.32-5.33-6.7c0-3.53,2.67-5.18,5.62-5.18A5.65,5.65,0,0,1,87.74,291.05Z" style="fill:#e6e6e6"></path><path d="M91,266.53a5.83,5.83,0,0,1-5.58,4c-4.34,0-6.88-3.16-6.88-7.74,0-5.26,2.66-8.48,6.76-8.48,3.5,0,5.59,2.06,5.59,6.57H81.5a16.22,16.22,0,0,0-.1,1.91c0,4.1,2.27,6.49,4.56,6.49a4.55,4.55,0,0,0,4.4-3Zm-9.49-6.21H88c.1-2.92-.83-5.43-2.83-5.43C83.35,254.89,81.78,256.55,81.46,260.32Z" style="fill:#e6e6e6"></path><rect x="65.55" y="134.24" width="79.85" height="5.41" style="fill:#e6e6e6"></rect><polygon points="73.81 139.65 76.85 146.31 79.9 146.31 79.9 139.65 73.81 139.65" style="fill:#e0e0e0"></polygon><polygon points="137.13 139.65 134.08 146.31 131.04 146.31 131.04 139.65 137.13 139.65" style="fill:#e0e0e0"></polygon><rect x="73.31" y="106.32" width="5.67" height="27.92" style="fill:#f0f0f0"></rect><rect x="73.31" y="127.94" width="5.67" height="1.08" style="fill:#e6e6e6"></rect><rect x="73.31" y="125.13" width="5.67" height="1.08" style="fill:#e6e6e6"></rect><rect x="78.98" y="106.32" width="16.92" height="27.92" style="fill:#f5f5f5"></rect><rect x="85.31" y="106.32" width="5.67" height="27.92" style="fill:#f0f0f0"></rect><rect x="85.31" y="127.94" width="5.67" height="1.08" style="fill:#e6e6e6"></rect><rect x="90.98" y="106.32" width="16.92" height="27.92" style="fill:#f5f5f5"></rect><rect x="95.25" y="112.23" width="9.58" height="2.27" style="fill:#e6e6e6"></rect><rect x="109.83" y="128.87" width="28.11" height="5.38" style="fill:#f5f5f5"></rect><rect x="102.96" y="128.87" width="28.11" height="5.38" style="fill:#f0f0f0"></rect><g style="opacity:0.8"><path d="M395.23,376.47l.55,3.14.12.66,1.57,8.9.13.73L400.44,406a4.06,4.06,0,0,0,.2.78,4.71,4.71,0,0,0,.31.73,5.07,5.07,0,0,0,4.47,2.68H428.1a5.05,5.05,0,0,0,5-4.19l1.1-6.2.11-.67h0l1.62-9.16.22-1.26h0l.7-3.94L437,384l1.33-7.53Z" style="fill:#f0f0f0"></path></g><path d="M416.68,339.94s6-8.49,6-13.78c-.06-6-3.2-5.1-3.2-5.1s1.23-18.1-3.09-19c0,0-.76-14.9-7-12.91S405.94,304,405.94,304a9.43,9.43,0,0,0-2.06,4.56c-.64,5.08,4.08,13.54,4.08,13.54s-2.82,1.59-1.95,6,10.67,11.87,10.67,11.87Z" style="fill:#f5f5f5"></path><path d="M417.14,372.22s-13.23-3.22-14.56-7.82,0-6.52,0-6.52-9.77-13.49-6.52-16.46c0,0-7-13.18-.59-14.67s10.53,11,10.53,11a9.44,9.44,0,0,1,4.1,2.87c3.15,4,3.43,13.71,3.43,13.71s1.79-1,3.28,3.2S417.14,372.22,417.14,372.22Z" style="fill:#f5f5f5"></path><path d="M419.89,360.88s12.46-5.28,13.37-10-.58-6.49-.58-6.49,8.5-14.32,5-17c0,0,5.75-13.76-.73-14.66s-9.49,11.9-9.49,11.9a9.32,9.32,0,0,0-3.83,3.23c-2.77,4.29-2.16,14-2.16,14s-1.89-.84-3,3.48,1.42,15.54,1.42,15.54Z" style="fill:#f5f5f5"></path><path d="M419.07,376.47c-.85-32.21-6.2-65.92-6.26-66.27a.34.34,0,0,0-.39-.28.35.35,0,0,0-.28.39c.05.34,5.39,34,6.25,66.16Z" style="fill:#e0e0e0"></path><path d="M418.44,368.86h-.05a.34.34,0,0,1-.29-.38c1.16-9.29,10.72-32,10.82-32.25a.35.35,0,0,1,.45-.18.35.35,0,0,1,.18.45c-.1.23-9.62,22.87-10.77,32.06A.34.34,0,0,1,418.44,368.86Z" style="fill:#e0e0e0"></path><path d="M418.5,376.47c-3.1-7.16-7.91-17-12.58-26.48-1.09-2.23-2.18-4.45-3.24-6.64a.34.34,0,0,0-.62.3l3.25,6.64c4.6,9.38,9.34,19.06,12.45,26.18Z" style="fill:#e0e0e0"></path></g><g id="freepik--Shadow--inject-2"><path d="M450.32,450.89c0,3.39-91.48,6.14-204.33,6.14s-204.32-2.75-204.32-6.14,91.48-6.14,204.32-6.14S450.32,447.49,450.32,450.89Z" style="fill:#f0f0f0"></path></g><g id="freepik--Paper--inject-2"><path d="M100.93,195.79s-34,3.51-32.54,45.74H151.2S129.21,200.7,100.93,195.79Z" style="fill:#263238"></path><path d="M100.93,195.79s-34,3.51-32.54,45.74H151.2S129.21,200.7,100.93,195.79Z" style="fill:#fff;opacity:0.7000000000000001"></path><path d="M375.3,410.21H200.78s-63-6.45-58.09-90.17c4.4-75.08-17.8-118-41.76-124.25H261.62S309,207.49,310.11,303.9c.29,24.66,8.31,48.51,20.23,67.51C342.59,390.94,359,405.33,375.3,410.21Z" style="fill:#263238"></path><g style="opacity:0.9"><path d="M375.3,410.21H200.78s-63-6.45-58.09-90.17c4.4-75.08-17.8-118-41.76-124.25H261.62S309,207.49,310.11,303.9c.29,24.66,8.31,48.51,20.23,67.51C342.59,390.94,359,405.33,375.3,410.21Z" style="fill:#fff"></path></g><g style="opacity:0.2"><path d="M268.78,226.72H155.45a.5.5,0,0,1,0-1H268.78a.5.5,0,0,1,0,1Z"></path></g><g style="opacity:0.2"><path d="M273.28,241.72H160a.5.5,0,0,1,0-1H273.28a.5.5,0,0,1,0,1Z"></path></g><g style="opacity:0.2"><path d="M277.78,256.72H164.45a.5.5,0,0,1,0-1H277.78a.5.5,0,1,1,0,1Z"></path></g><path d="M229.28,271.72H169a.5.5,0,0,1,0-1h60.33a.5.5,0,0,1,0,1Z" style="opacity:0.2"></path><path d="M379.48,410.21H200.82c11.05-3.45,23.63-13,23.63-38.8H389.61S395.78,399,379.48,410.21Z" style="fill:#263238"></path><path d="M379.48,410.21H200.82c11.05-3.45,23.63-13,23.63-38.8H389.61S395.78,399,379.48,410.21Z" style="fill:#fff;opacity:0.7000000000000001"></path></g><g id="freepik--Books--inject-2"><path d="M112,422.78a2.24,2.24,0,1,1,0-4.48l96.6.06h.23a15.79,15.79,0,0,1,0,31.56h-.48L112,449.88a2.25,2.25,0,0,1,0-4.49Z" style="fill:#4640FF"></path><path d="M163.53,445.45l-97.16-.06V422.78l97.16.06a11.34,11.34,0,0,1,10,6.1h0a11.3,11.3,0,0,1,0,10.43h0A11.29,11.29,0,0,1,163.53,445.45Z" style="fill:#fff"></path><path d="M178.52,434.16a15.8,15.8,0,0,0-15.3-15.79H163l-96.6-.06a2.24,2.24,0,1,0,0,4.48l96.36.06a11.31,11.31,0,0,1,0,22.61l-96.35-.06a2.25,2.25,0,0,0,0,4.49l96.35.06h.48A15.82,15.82,0,0,0,178.52,434.16Z" style="fill:#4640FF"></path><g style="opacity:0.2"><path d="M178.52,434.16a15.8,15.8,0,0,0-15.3-15.79H163l-96.6-.06a2.24,2.24,0,1,0,0,4.48l96.36.06a11.31,11.31,0,0,1,0,22.61l-96.35-.06a2.25,2.25,0,0,0,0,4.49l96.35.06h.48A15.82,15.82,0,0,0,178.52,434.16Z" style="fill:#fff"></path></g><path d="M66.38,429.62l95.94.06a.76.76,0,1,0,0-1.51l-95.94-.06Z" style="opacity:0.2"></path><path d="M66.38,434.84l95.94.06a.76.76,0,0,0,0-1.51l-95.94-.06Z" style="opacity:0.2"></path><path d="M66.37,440.07l95.94.06a.76.76,0,1,0,0-1.51l-95.95-.06Z" style="opacity:0.2"></path><path d="M95,391.14a2.24,2.24,0,0,1,0-4.48l96.6.06h.24a15.78,15.78,0,0,1,0,31.55l-.24,0h-.25l-96.35-.06a2.25,2.25,0,0,1,0-4.49Z" style="fill:#4640FF"></path><g style="opacity:0.5"><path d="M95,391.14a2.24,2.24,0,0,1,0-4.48l96.6.06h.24a15.78,15.78,0,0,1,0,31.55l-.24,0h-.25l-96.35-.06a2.25,2.25,0,0,1,0-4.49Z" style="fill:#fff"></path></g><path d="M146.5,413.81l-97.16-.06,0-22.61,97.16.06a11.29,11.29,0,0,1,10,6.1h0a11.27,11.27,0,0,1,0,10.43h0A11.29,11.29,0,0,1,146.5,413.81Z" style="fill:#fff"></path><path d="M161.49,402.52a15.8,15.8,0,0,0-15.29-15.79H146l-96.6-.06a2.24,2.24,0,0,0,0,4.48l96.35.06a11.31,11.31,0,1,1,0,22.61l-96.36-.06a2.25,2.25,0,0,0,0,4.49l96.35.06h.25l.24,0A15.79,15.79,0,0,0,161.49,402.52Z" style="fill:#4640FF"></path><g style="opacity:0.4"><path d="M161.49,402.52a15.8,15.8,0,0,0-15.29-15.79H146l-96.6-.06a2.24,2.24,0,0,0,0,4.48l96.35.06a11.31,11.31,0,1,1,0,22.61l-96.36-.06a2.25,2.25,0,0,0,0,4.49l96.35.06h.25l.24,0A15.79,15.79,0,0,0,161.49,402.52Z" style="fill:#fff"></path></g><g style="opacity:0.2"><path d="M49.35,398l96,.06a.74.74,0,0,0,.75-.75.76.76,0,0,0-.75-.75l-96-.06Z"></path><path d="M49.35,403.2l95.94.06a.76.76,0,1,0,0-1.51l-95.94-.06Z"></path><path d="M49.35,408.42l95.94.07a.76.76,0,0,0,0-1.51l-95.94-.06Z"></path></g><polygon points="129.13 398.04 129.13 413.76 123.65 408.81 118.19 413.76 118.19 398.04 123.65 398.07 129.13 398.04" style="fill:#4640FF"></polygon></g><g id="freepik--Ink--inject-2"><path d="M186.48,330.63v42.63a13.4,13.4,0,0,1-13.4,13.4h-68a13.4,13.4,0,0,1-13.4-13.4V330.63A2.31,2.31,0,0,1,94,328.32h27.09v-8.51h-4.6v-7.09h45.21v7.09h-4.61v8.51h27.1A2.32,2.32,0,0,1,186.48,330.63Z" style="fill:#4640FF"></path><g style="opacity:0.1"><path d="M186.48,330.63v42.63a13.4,13.4,0,0,1-13.4,13.4h-68a13.4,13.4,0,0,1-13.4-13.4V330.63A2.31,2.31,0,0,1,94,328.32h27.09v-8.51h-4.6v-7.09h45.21v7.09h-4.61v8.51h27.1A2.32,2.32,0,0,1,186.48,330.63Z" style="fill:#fff"></path></g><path d="M179.55,338.23v35a6.49,6.49,0,0,1-6.47,6.49h-68a6.5,6.5,0,0,1-6.47-6.49v-35h29V325.46h23v12.77Z" style="opacity:0.2"></path><path d="M179.38,355.22v18a6.31,6.31,0,0,1-6.3,6.31h-68a6.32,6.32,0,0,1-6.31-6.31V347.58c5.35-2,16.17-3.47,32.82,5.42C149.07,362.34,169.66,362.47,179.38,355.22Z" style="opacity:0.5"></path></g><g id="freepik--speech-bubble--inject-2"><path d="M310.88,133.89v11.76a3.83,3.83,0,0,1-2.59,3.63l.27,5.71-5-5.49h-21a3.85,3.85,0,0,1-3.84-3.85V133.89a3.84,3.84,0,0,1,3.84-3.84H307A3.84,3.84,0,0,1,310.88,133.89Z" style="fill:#4640FF"></path><path d="M310.88,133.89v11.76a3.83,3.83,0,0,1-2.59,3.63l.27,5.71-5-5.49h-21a3.85,3.85,0,0,1-3.84-3.85V133.89a3.84,3.84,0,0,1,3.84-3.84H307A3.84,3.84,0,0,1,310.88,133.89Z" style="fill:#fff;opacity:0.5"></path><path d="M289,139.91a1.77,1.77,0,1,1-1.77-1.77A1.77,1.77,0,0,1,289,139.91Z" style="fill:#4640FF"></path><path d="M304.09,139.91a1.77,1.77,0,1,1-1.77-1.77A1.77,1.77,0,0,1,304.09,139.91Z" style="fill:#4640FF"></path><path d="M296.63,139.91a1.77,1.77,0,1,1-1.77-1.77A1.77,1.77,0,0,1,296.63,139.91Z" style="fill:#4640FF"></path></g><g id="freepik--Character--inject-2"><path d="M350.54,226.62c-6.59-2-13.24-3.2-20.06-2.39,4.95,1.27,8.9,3,11.09,5.44-35.35,11-60.28,6.22-64.89,5.16.81-3.72,5.08-20.41,19.78-41,1.32,3.27,1.24,7.45.2,12.25,4.06-6,6.13-13.64,7.32-22a182.2,182.2,0,0,1,26.79-25.9,30.91,30.91,0,0,1,.21,13.18c3.27-5.05,5-11.21,5.95-17.87h0q5.65-4.16,12-8.19c20.78-13.18,38.19-18.81,52-20.54.22,5.37-1,11.15-3.25,17.21a54.29,54.29,0,0,0,9.79-17.77c14.21-.63,23.92,2.89,28.87,5.35a6.42,6.42,0,0,1,3.62,5.72c.21,10.19-3.21,36.52-39.12,63.78-5.66-3.68-12.55-4.53-19.86-4.39,5.71,2.52,10.79,5.28,13.81,8.79-2,1.4-4.14,2.8-6.34,4.2A201.78,201.78,0,0,1,350.54,226.62Z" style="fill:#4640FF"></path><g style="opacity:0.4"><path d="M350.54,226.62c-6.59-2-13.24-3.2-20.06-2.39,4.95,1.27,8.9,3,11.09,5.44-35.35,11-60.28,6.22-64.89,5.16.81-3.72,5.08-20.41,19.78-41,1.32,3.27,1.24,7.45.2,12.25,4.06-6,6.13-13.64,7.32-22a182.2,182.2,0,0,1,26.79-25.9,30.91,30.91,0,0,1,.21,13.18c3.27-5.05,5-11.21,5.95-17.87h0q5.65-4.16,12-8.19c20.78-13.18,38.19-18.81,52-20.54.22,5.37-1,11.15-3.25,17.21a54.29,54.29,0,0,0,9.79-17.77c14.21-.63,23.92,2.89,28.87,5.35a6.42,6.42,0,0,1,3.62,5.72c.21,10.19-3.21,36.52-39.12,63.78-5.66-3.68-12.55-4.53-19.86-4.39,5.71,2.52,10.79,5.28,13.81,8.79-2,1.4-4.14,2.8-6.34,4.2A201.78,201.78,0,0,1,350.54,226.62Z" style="fill:#fff"></path></g><path d="M401.58,171.22a.53.53,0,0,1-.63.24c-.09,0-9.46-3.61-22.84,1.8-11.15,7.44-23.25,15.4-35.59,23.36a58.15,58.15,0,0,1,28.34-.58.35.35,0,0,1,.25.51.55.55,0,0,1-.59.32,57.36,57.36,0,0,0-30.46,1.33,0,0,0,0,0,0,0c-4.11,2.64-8.24,5.28-12.35,7.9-61,38.71-93.53,55.8-94.54,56.32,1-.71,31.79-23.78,91.25-61.5l4.37-2.77c8.53-9,9.18-17.63,9.19-17.72a.52.52,0,0,1,.48-.46.36.36,0,0,1,.43.38c0,.08-.57,7.71-7.64,16.25,11.86-7.45,23.79-14.81,35.1-21.68a57.2,57.2,0,0,0,12.82-25.46.54.54,0,0,1,.54-.41.35.35,0,0,1,.35.44,57.86,57.86,0,0,1-11.54,24.1c36.06-21.9,65.36-38.74,65.36-38.74l.24.38S411.37,151.09,381,171.37c12.1-3.9,20.36-.74,20.45-.7A.37.37,0,0,1,401.58,171.22Z" style="fill:#4640FF"></path><g style="opacity:0.2"><path d="M401.58,171.22a.53.53,0,0,1-.63.24c-.09,0-9.46-3.61-22.84,1.8-11.15,7.44-23.25,15.4-35.59,23.36a58.15,58.15,0,0,1,28.34-.58.35.35,0,0,1,.25.51.55.55,0,0,1-.59.32,57.36,57.36,0,0,0-30.46,1.33,0,0,0,0,0,0,0c-4.11,2.64-8.24,5.28-12.35,7.9-61,38.71-93.53,55.8-94.54,56.32,1-.71,31.79-23.78,91.25-61.5l4.37-2.77c8.53-9,9.18-17.63,9.19-17.72a.52.52,0,0,1,.48-.46.36.36,0,0,1,.43.38c0,.08-.57,7.71-7.64,16.25,11.86-7.45,23.79-14.81,35.1-21.68a57.2,57.2,0,0,0,12.82-25.46.54.54,0,0,1,.54-.41.35.35,0,0,1,.35.44,57.86,57.86,0,0,1-11.54,24.1c36.06-21.9,65.36-38.74,65.36-38.74l.24.38S411.37,151.09,381,171.37c12.1-3.9,20.36-.74,20.45-.7A.37.37,0,0,1,401.58,171.22Z"></path></g><polygon points="363.69 433.76 362.86 443.76 357.83 443.75 356.47 433.74 363.69 433.76" style="fill:#ffc3bd"></polygon><path d="M342.25,450.89c.19-3.28,1.61-4.26,3.4-4.37s8.44-2.33,8.44-2.33,1.32-2.09,2.54-2.51,2.43.81,2.43.81l3.34-.4s1-1.5,1.69-.19c1.13,2,1.17,7.67,1.12,9Z" style="fill:#263238"></path><path d="M342.66,450l4.16,0,18.2-.09c.24,0,.18-.35,0-.35h-1.24l0-.05a3.29,3.29,0,0,1,1.1-4.77c.18-.1-.05-.41-.23-.3a3.58,3.58,0,0,0-1.21,5.12H360.8l-18.2.1C342.37,449.68,342.43,450,342.66,450Z" style="fill:#4640FF"></path><path d="M369.55,301.74a335.68,335.68,0,0,1-1.94,40.18q-.75,7.36-1.82,15.71c6.46,33.18-1.36,78.83-1.36,78.83l-8.26-.18S348.48,384.22,346,357c-4.13-44.65-4.1-87.19-4.1-87.19l22.52-1.92S369,276.39,369.55,301.74Z" style="fill:#4640FF"></path><path d="M344,331.25c5.48-14,2.08-38.77,2.08-38.77L343,312.73Z" style="opacity:0.2"></path><polygon points="355.48 438.2 354.77 434.7 365.49 434.7 365.32 438.21 355.48 438.2" style="fill:#263238"></polygon><polygon points="327.85 435.25 327.4 443.72 322.07 443.72 320.36 435.38 327.85 435.25" style="fill:#ffc3bd"></polygon><path d="M306.34,450.89c.18-3.3,1.6-4.29,3.39-4.4s8.43-2.35,8.43-2.35,1.32-2.1,2.53-2.52,2.44.82,2.44.82l4-.32s.3-1.6,1-.28c1.14,2.05,1.2,7.72,1.15,9.05Z" style="fill:#263238"></path><path d="M306.75,450l4.16,0,18.2-.1c.24,0,.18-.35-.06-.35h-1.23l0-.05a3.32,3.32,0,0,1,1.08-4.8c.19-.1-.05-.41-.23-.3a3.61,3.61,0,0,0-1.2,5.15h-2.56l-18.2.1C306.46,449.68,306.52,450,306.75,450Z" style="fill:#4640FF"></path><polygon points="319.02 438.12 318.33 434.62 329.31 434.62 329.12 438.12 319.02 438.12" style="fill:#263238"></polygon><path d="M318.35,270.72s-12.6,78.78-11.35,96,12.8,68.5,12.8,68.5h8.05s1.58-55.81-.39-68.66c0,0,18.5-60.11,20.79-74.11,1.25-9.32-.28-16-3.79-20.76Z" style="fill:#4640FF"></path><path d="M359,199.32s18.29,20.1,17.3,25.81c-1.94,11.11-25.64,7.24-25.64,7.24Z" style="fill:#263238"></path><path d="M315,172.44a.43.43,0,0,1-.43-.7,4.21,4.21,0,0,1,3.6-1.4.43.43,0,0,1-.14.84,3.33,3.33,0,0,0-2.84,1.14.62.62,0,0,1-.19.12" style="fill:#263238"></path><path d="M315.71,174.31a18.92,18.92,0,0,1-1.88,4.78,3,3,0,0,0,2.55.13Z" style="fill:#ed847e"></path><path d="M316.76,174.52c.17.7-.06,1.35-.52,1.46s-1-.36-1.13-1.06.06-1.36.52-1.47,1,.37,1.13,1.07" style="fill:#263238"></path><path d="M315.84,173.44l-1.8-.08s1.18,1.11,1.8.08" style="fill:#263238"></path><path d="M316.39,163s-4,.84-1,6.93l3.22-6Z" style="fill:#263238"></path><path d="M336.47,196.85a11.11,11.11,0,0,0-6.58.84c1.45-2.47.46-5.38-.94-8.06l7.93-10.87c.22,5.45,1.48,15.25,5.95,17.86C342.83,196.62,344.28,198,336.47,196.85Z" style="fill:#ffc3bd"></path><g style="opacity:0.2"><path d="M333.65,183.19,329,189.62a17,17,0,0,1,1.18,2.76c2.15-.85,4.62-4,4.3-6.4a8.05,8.05,0,0,0-.79-2.79"></path></g><path d="M339.32,168.39c.64,8.63,1.1,12.26-2.62,17.25-5.6,7.49-16.34,6.39-19.54-1.87-2.89-7.43-3.46-20.29,4.45-24.84a11.8,11.8,0,0,1,17.71,9.46" style="fill:#ffc3bd"></path><path d="M326.42,155.39s7.91-1.83,13.11,3.31,6.08,18.09-2.43,26.38c.14,2.61-11.22,3.43-14.42-4-1.16-2.71-2.89-4.51-3.35-13.74l-3.23-.92C313.43,165.09,314.18,154.09,326.42,155.39Z" style="fill:#263238"></path><path d="M332.91,155.19s6.84-14.53,18.58-7c7.61,4.9-1.09,24.73,3,30.44,6.89,9.56,12.36.09,12.36.09s-2.86,10.5-13.31,8.36c-11.48-2.36-12.57-13.88-10.83-20.18C342.74,166.94,332.82,164.2,332.91,155.19Z" style="fill:#263238"></path><path d="M327,174.7a6.32,6.32,0,0,1-2.78,4c-1.89,1.17-3.45-.37-3.44-2.47,0-1.89,1-4.78,3.13-5.1A2.84,2.84,0,0,1,327,174.7" style="fill:#ffc3bd"></path><path d="M321.38,179a1.43,1.43,0,1,0,1.12-1.69A1.43,1.43,0,0,0,321.38,179Z" style="fill:#fff"></path><path d="M342.69,167.41h0c-10.34-1.41-9.77-12.11-9.76-12.22a.22.22,0,0,1,.25-.22.23.23,0,0,1,.22.25c0,.42-.54,10.37,9.36,11.72a.24.24,0,0,1-.05.47Z" style="fill:#4640FF"></path><path d="M366.74,265.33c3.14,13.07-48.32,8.71-50.39,6.12s3.88-33.66,4.19-41.17v0c.28-7.46-6.9-16.29-3.89-21.69a24,24,0,0,1,5.51-6c2-1.66,4.13-3.14,5.68-4.17.13-.1.25-.17.36-.24l0,0,1-.62c.69-.43,1.09-.66,1.09-.66a93.23,93.23,0,0,1,13.81-1.53h1.24a32.61,32.61,0,0,1,8,.8c8.42,2.15,9.48,9.75,9.43,18.19S365.39,259.75,366.74,265.33Z" style="fill:#263238"></path><g style="opacity:0.2"><path d="M345.33,195.33l0,.08c-.47,1.54-5.84,5.48-10.61,5.11-4.29-.34-6.46-1.81-6.86-2.11.13-.1.25-.17.36-.24l0,0,1-.62a20.63,20.63,0,0,0,7.05,1.18,11.15,11.15,0,0,0,7.84-3.36h1.25Z"></path></g><path d="M329.25,197.67s-.27-2.12,1-2.74,6.54-4.22,8.57-4.37,3.88,4.81,5.29,4.79S332.67,198.88,329.25,197.67Z" style="fill:#263238"></path><path d="M329.33,213.64c-3.37,9.2-12.54,31.84-21.33,36a8.46,8.46,0,0,1-3.23.76c-11.19.1-22.19-2-33-4.72l1-6.85c9.53.28,23.44.62,30.74-.38a11.07,11.07,0,0,0-1.18.38c3-4.16,5.11-9.44,7.24-14.25,2.24-5.23,4.42-10.67,6.6-15.91l13.1,4.94Z" style="fill:#263238"></path><path d="M272.88,239a33.76,33.76,0,0,0-1.86-4.6c-.48-.56-2.34,1.37-2.34,1.37a6.56,6.56,0,0,0-6.2,1.78,9.15,9.15,0,0,0-3.13,6.3s3.37,2.32,12.56,1.76Z" style="fill:#ffc3bd"></path></g><g id="freepik--Letters--inject-2"><path d="M186.57,163.18c-2.06.09-2.46.4-2.46,2.61v15c0,2.21.4,2.52,2.46,2.61v.61c-.95-.06-2.46-.09-3.85-.09-1.59,0-3,0-3.88.09v-.61c2-.09,2.44-.4,2.44-2.61V164.6L174,184.2h-.49l-7.64-19.69v16c0,2.23.4,2.83,2.75,2.92v.61c-.72-.06-2.06-.09-3.09-.09s-2.15,0-2.82.09v-.61c2.06-.09,2.46-.69,2.46-2.92V165.79c0-2.21-.4-2.52-2.46-2.61v-.61c.67.06,1.79.09,2.82.09.88,0,1.92,0,2.59-.09l6.66,17.6,6.52-17.51h1.44c1.39,0,2.9,0,3.85-.09Z" style="fill:#263238"></path><path d="M127,171.72c0,10.37-6.27,17.22-17.22,17.22-1.44,0-4.63-.14-6.67-.14-2.23,0-4.58,0-5.91.14V188c3.24-.14,3.86-.63,3.86-4.09V160.29c0-3.47-.62-4-3.86-4.09v-1c1.1.07,2.89.16,4.65.16l1.17,0c2.18,0,5.36-.14,7.18-.14C121.53,155.24,127,161.1,127,171.72Zm-21.52-11.53V184c0,3.33.63,4.09,3.58,4.09,10.36,0,13.18-5.81,13.18-16.17,0-10.67-3.37-15.81-13.23-15.81C106.1,156.1,105.47,156.92,105.47,160.19Z" style="fill:#263238"></path><path d="M167.55,135.4c-1.27,0-1.52.24-1.52,1.61v9.33c0,1.37.25,1.57,1.52,1.57h1.38c2.35,0,2.82-.9,3.09-3.52h.43c0,.39-.06.94-.06,1.54s0,1.45.13,2.41c-1.27-.06-3.05-.06-4.31-.06s-3.61,0-5.45.06V148c1.27-.05,1.52-.25,1.52-1.62V137c0-1.37-.25-1.56-1.52-1.61V135c.52,0,1.43.06,2.41.06s1.8,0,2.38-.06Z" style="fill:#263238"></path><path d="M147.4,162.22v.35c-.46.1-1,.47-1.37,1.52l-4.09,10.54h-.28l-4.25-10.94c-.35-.89-.83-1.1-1.2-1.12v-.35c.47,0,1.2.06,1.87.06.9,0,1.74,0,2.22-.06v.35c-.83,0-1.23.16-1.23.65a2.47,2.47,0,0,0,.2.81l3.16,8.36,2.83-7.34a4.29,4.29,0,0,0,.35-1.42c0-.77-.53-1-1.52-1.06v-.35c.66,0,1.39.06,2,.06A10.75,10.75,0,0,0,147.4,162.22Z" style="fill:#263238"></path><path d="M208.75,174.91c0,1.27.38,1.86,1.61,1.86v.45a11.88,11.88,0,0,0-1.31-.07,6.93,6.93,0,0,0-2.2.3V175a3.65,3.65,0,0,1-3.48,2.54,3,3,0,0,1-2.2-.8,3.93,3.93,0,0,1-.7-2.77v-5.31c0-1.28-.37-1.87-1.6-1.87v-.45c.44,0,.89.06,1.31.06a7,7,0,0,0,2.2-.29v8.32c0,1.32.08,2.43,1.6,2.43s2.87-1.67,2.87-3.83v-4.37c0-1.28-.39-1.87-1.62-1.87v-.45q.68.06,1.32.06a7,7,0,0,0,2.2-.29Z" style="fill:#263238"></path><path d="M201.1,134.23c4.92.66,6.35,3.09,6.35,5.61,0,3.53-2.81,6-7.47,6-.93,0-2.79-.09-5.34-.09-1.46,0-3,0-3.86.09v-.62c2.11-.09,2.52-.41,2.52-2.67V127.15c0-2.27-.41-2.58-2.52-2.68v-.62c.87.06,2.43.09,3.8.09,1.95,0,3.94-.06,4.69-.06,4.35,0,6.55,2,6.55,4.89,0,2.2-1.24,4.34-4.72,5.4Zm-4.92-7.08v7h2.1c3.66,0,4.57-2.36,4.57-5.07,0-3-1.25-4.63-4.36-4.63C196.59,124.47,196.18,125,196.18,127.15Zm8.16,12.55c0-3.16-1.6-5-5.54-5h-2.62v7.86c0,2.17.41,2.58,2.34,2.58C202.59,145.15,204.34,143.19,204.34,139.7Z" style="fill:#263238"></path><path d="M232.75,165.33a2,2,0,0,0,1,.42c.38,0,.53-.45.65-1.3h.68c-.09,1-.15,2.31-.15,6h-.67c-.22-2.81-1.57-5.67-4.84-5.67a3.37,3.37,0,0,0-3.6,3.43c0,2.67,2.3,3.74,4.95,5.4,3.07,1.91,5.31,3.47,5.31,6.63,0,3.75-2.83,5.6-6.26,5.6a6.87,6.87,0,0,1-4-1.09,2,2,0,0,0-1-.42c-.37,0-.53.45-.65,1.3h-.67c.08-1.21.11-2.91.11-7.07h.68c.24,3.57,1.6,6.69,5.37,6.69a3.64,3.64,0,0,0,3.83-3.93c0-2.39-1.86-3.74-4.59-5.38s-5.26-3.28-5.26-6.61c0-3.49,2.64-5.11,5.54-5.11A5.56,5.56,0,0,1,232.75,165.33Z" style="fill:#263238"></path><path d="M235.71,144.24a5.77,5.77,0,0,1-5.52,4c-4.27,0-6.78-3.13-6.78-7.65,0-5.18,2.62-8.36,6.67-8.36,3.46,0,5.51,2,5.51,6.47h-9.21a16.11,16.11,0,0,0-.1,1.89c0,4,2.24,6.41,4.5,6.41a4.48,4.48,0,0,0,4.34-3Zm-9.37-6.14h6.42c.1-2.88-.82-5.35-2.8-5.35C228.21,132.75,226.65,134.39,226.34,138.1Z" style="fill:#263238"></path></g></svg>
